<svg xmlns="http://www.w3.org/2000/svg" width="1024" height="1024" viewBox="0 0 1024 1024">
  <defs>
    <linearGradient id="bg" x1="0" y1="0" x2="0" y2="1">
      <stop offset="0" stop-color="#6366f1"/>
      <stop offset="1" stop-color="#4338ca"/>
    </linearGradient>
  </defs>
  <rect x="100" y="100" width="824" height="824" rx="186" fill="url(#bg)"/>
  <svg x="256" y="192" width="512" height="640" viewBox="0 0 310 387">
    <path fill="#FDF2E1" d="M108 100 Q 155 93 202 100 Q 228 130 211 170 Q 192 203 155 208 Q 118 203 99 170 Q 82 130 108 100 Z"/>
    <svg width="310" height="387" viewBox="0 0 930 1162" preserveAspectRatio="none">
<g transform="translate(0.000000,1161.000000) scale(0.100000,-0.100000)"
fill="#fdf2e1" stroke="none">
<path d="M4561 11239 c-43 -8 -73 -30 -148 -109 -13 -14 -40 -58 -60 -98 -50
-103 -55 -178 -18 -287 31 -93 34 -144 8 -188 -29 -48 -73 -72 -160 -87 -106
-18 -233 -55 -296 -86 -29 -15 -98 -61 -155 -103 -103 -76 -103 -76 -98 -172
3 -74 10 -111 32 -164 15 -39 27 -87 26 -111 -1 -75 -47 -134 -121 -154 -188
-49 -238 -66 -319 -106 -100 -49 -148 -91 -213 -188 -128 -190 -84 -345 142
-495 130 -88 183 -102 410 -110 102 -3 610 -3 1130 0 1082 6 1064 5 1332 91
89 29 103 36 144 82 158 175 127 394 -81 567 -93 78 -189 124 -303 147 -98 20
-145 42 -175 83 -40 53 -40 134 -1 188 39 52 36 160 -6 271 -17 44 -32 63 -74
94 -107 78 -238 131 -387 156 -82 13 -103 22 -138 54 -57 51 -70 132 -32 206
20 39 22 55 18 159 -8 236 -85 325 -308 360 -74 12 -88 12 -149 0z"/>
<path d="M7318 8620 c-154 -18 -317 -66 -443 -132 -117 -61 -275 -170 -329
-229 -75 -80 -125 -193 -126 -281 0 -28 1 -28 63 -28 63 0 63 0 122 61 33 33
73 67 89 76 55 29 149 13 186 -31 7 -9 30 -19 52 -22 50 -9 97 -40 122 -84 19
-31 21 -55 25 -225 3 -190 3 -190 34 -210 65 -43 87 -98 87 -225 0 -127 -22
-182 -87 -225 -27 -18 -31 -27 -36 -82 -4 -34 -13 -76 -21 -92 -14 -25 -61
-73 -83 -83 -4 -1 -17 -21 -28 -43 -28 -55 -71 -80 -157 -93 -40 -6 -74 -15
-75 -19 -9 -26 -46 -74 -67 -88 -49 -32 -93 -35 -203 -13 -117 24 -158 46
-187 100 -18 33 -24 36 -78 42 -63 6 -103 23 -129 52 -24 27 -49 80 -49 102 0
14 -9 21 -32 26 -21 4 -51 26 -85 61 -87 90 -137 113 -207 94 -64 -17 -105
-55 -139 -127 -29 -62 -31 -73 -31 -186 0 -80 5 -129 13 -145 8 -13 13 -46 13
-72 0 -79 -50 -143 -123 -158 -34 -7 -34 -7 -41 -83 -8 -85 -22 -120 -64 -160
-16 -14 -37 -38 -47 -52 -25 -37 -73 -58 -127 -58 -52 0 -81 12 -122 50 -27
24 -30 25 -82 13 -29 -6 -62 -21 -72 -32 -32 -35 -66 -47 -178 -63 -94 -13
-110 -18 -127 -41 -31 -38 -70 -55 -157 -64 -42 -5 -93 -13 -112 -18 -68 -18
-137 13 -175 78 -18 30 -20 56 -23 227 -4 192 -4 192 -30 198 -15 3 -35 8 -44
10 -28 8 -67 44 -85 77 -18 35 -21 124 -6 152 8 14 5 26 -13 53 -13 19 -24 44
-25 56 0 12 -1 68 -3 126 -3 136 -29 200 -100 247 -80 54 -158 52 -232 -3 -31
-23 -89 -125 -98 -175 -7 -34 -41 -76 -78 -95 -18 -9 -78 -19 -156 -25 -144
-10 -160 -13 -255 -40 -61 -18 -69 -23 -83 -57 -38 -93 -133 -138 -222 -104
-15 6 -53 13 -84 17 -102 11 -153 65 -164 173 -4 34 -10 62 -15 62 -15 0 -70
53 -85 81 -8 16 -17 58 -21 92 -5 55 -9 64 -36 82 -46 29 -75 79 -82 139 -4
29 -5 142 -3 252 3 164 6 205 20 230 17 31 66 78 88 86 7 2 15 53 20 125 5 71
14 132 23 149 29 56 78 86 142 86 51 0 76 -12 132 -63 42 -38 110 -66 136 -56
15 6 37 78 37 125 0 84 -228 281 -420 363 -89 38 -304 93 -427 109 -133 18
-419 8 -546 -20 -156 -33 -330 -95 -483 -170 -154 -76 -353 -203 -397 -253
-77 -88 -127 -196 -127 -275 0 -39 41 -110 87 -153 20 -19 44 -28 83 -33 123
-16 378 -197 515 -367 33 -41 84 -102 115 -135 115 -128 174 -261 275 -614 93
-326 127 -422 171 -489 102 -154 301 -277 492 -306 162 -25 304 -15 454 31
135 41 151 44 192 34 51 -11 86 -38 113 -85 33 -60 209 -242 272 -282 95 -61
271 -140 363 -163 49 -12 148 -25 223 -30 193 -12 214 -27 274 -202 91 -260
233 -489 435 -697 57 -58 189 -173 301 -261 301 -238 431 -360 545 -515 166
-225 181 -422 50 -691 -59 -122 -114 -185 -223 -257 -46 -30 -139 -97 -208
-149 -143 -109 -284 -205 -349 -238 -54 -27 -192 -149 -279 -246 -122 -136
-224 -305 -274 -454 -51 -148 -62 -230 -62 -435 1 -178 3 -195 29 -280 15 -49
43 -120 63 -157 107 -204 387 -384 629 -405 58 -5 86 -1 145 17 148 44 289
141 344 234 54 92 69 259 31 349 -23 56 -100 132 -159 157 -38 17 -68 22 -112
21 -121 -5 -156 -2 -188 16 -65 38 -96 122 -81 219 15 103 169 277 348 395 50
33 208 119 351 191 306 155 453 240 515 299 25 24 72 64 104 89 81 62 221 212
282 300 93 136 166 297 207 459 18 73 21 113 20 261 -2 215 -24 357 -88 548
-72 216 -253 538 -328 587 -18 11 -49 47 -71 80 -37 57 -85 107 -365 379 -67
65 -129 132 -137 148 -19 36 -20 107 -4 140 37 70 72 86 228 102 223 24 358
94 567 297 66 64 131 122 143 128 38 20 102 15 162 -13 117 -53 262 -75 509
-76 134 0 134 0 172 34 21 19 57 40 81 46 108 27 179 63 225 114 116 129 196
280 263 497 73 238 204 555 285 690 95 159 240 314 410 441 103 77 272 175
369 216 66 27 66 27 66 145 0 118 0 118 -42 169 -63 73 -237 219 -363 303
-231 154 -508 267 -755 309 -117 19 -359 28 -462 16z"/>
<path d="M4593 8288 c-34 -39 -99 -140 -137 -216 -91 -180 -119 -318 -114
-557 3 -167 4 -171 33 -224 37 -67 112 -143 169 -171 53 -25 204 -28 287 -5
68 20 125 79 177 185 37 75 37 75 36 250 -1 156 -4 186 -27 275 -33 123 -128
319 -192 395 -52 61 -105 89 -171 89 -30 1 -46 -5 -61 -21z"/>
</g>
    </svg>
<path d="M0 0 C0.8270141601562386 0.0075732421875045475 1.6540283203125057 0.015146484374994884 2.506103515625 0.02294921875 C9.75359430855309 0.2158401830299681 16.0468719089439 1.6225380719974396 22.75 4.4375 C23.75289062500002 4.849999999999994 24.755781249999984 5.262500000000003 25.7890625 5.6875 C33.755585669676464 9.310518289051828 40.52558145524159 14.301371079989934 46.75 20.4375 C46.75 21.097499999999997 46.75 21.757499999999993 46.75 22.4375 C47.40999999999997 22.4375 48.06999999999999 22.4375 48.75 22.4375 C48.75 25.0775 48.75 27.7175 48.75 30.4375 C48.02296875000002 30.743007812499997 47.29593749999998 31.048515624999993 46.546875 31.36328125 C34.706764978232286 36.75204927272762 23.480284622694853 45.61988063814843 18.1875 57.8125 C17.76468749999998 58.781875000000014 17.341875000000016 59.75125 16.90625 60.75 C16.524687500000027 61.636875 16.143124999999998 62.52375000000001 15.75 63.4375 C15.234375 64.55124999999998 14.71875 65.66500000000002 14.1875 66.8125 C12.75 70.4375 12.75 70.4375 11.9609375 73.3671875 C9.75296642284269 81.5270806112336 6.891929220351585 88.43516008011093 0.75 94.4375 C-1.6811276641932977 95.68746658206166 -3.7957993966121535 96.41870364835347 -6.46484375 96.97265625 C-6.7593945312499955 97.04935546875001 -6.7593945312499955 97.04935546875001 -8.25 97.4375 C-8.579999999999984 98.0975 -8.909999999999997 98.7575 -9.25 99.4375 C-12.085433663065032 99.37691381061825 -14.916001454925834 99.28966609175032 -17.75 99.1875 C-18.54148437500001 99.17332031249998 -19.332968749999992 99.15914062500002 -20.1484375 99.14453125 C-26.126760919288074 98.89951799511113 -30.058725326898497 97.41414832173251 -35.25 94.4375 C-35.65089843749999 94.94539062500002 -36.05179687500001 95.45328125 -36.46484375 95.9765625 C-41.92015522815328 102.58231381368222 -48.589906513851986 108.73944245369648 -57.25 110.4375 C-61.256358161950686 110.58187326709731 -65.24331171336999 110.55419965883388 -69.25 110.4375 C-69.41499999999999 109.44749999999999 -69.41499999999999 109.44749999999999 -70.25 104.4375 C-69.42500000000001 104.27250000000001 -69.42500000000001 104.27250000000001 -65.25 103.4375 C-65.25 102.7775 -65.25 102.1175 -65.25 101.4375 C-62.610000000000014 101.4375 -59.97 101.4375 -57.25 101.4375 C-58.384375000000006 101.293125 -59.51875000000001 101.14875 -60.6875 101 C-64.25 100.4375 -64.25 100.4375 -65.25 99.4375 C-65.29092937423434 97.1045256686433 -65.29241723189088 94.77044775399776 -65.25 92.4375 C-67.88999999999999 92.4375 -70.53 92.4375 -73.25 92.4375 C-73.25 89.79750000000001 -73.25 87.1575 -73.25 84.4375 C-72.25999999999999 84.4375 -71.27000000000001 84.4375 -70.25 84.4375 C-70.25 81.79750000000001 -70.25 79.1575 -70.25 76.4375 C-68.60440243501455 76.10300466918625 -66.95851501695986 75.7699350104379 -65.3125 75.4375 C-64.39597656250001 75.25187499999998 -63.47945312499999 75.06625 -62.53515625 74.875 C-60.520956563468246 74.48937544462981 -59.27275223099056 74.4375 -57.25 74.4375 C-57.25 73.7775 -57.25 73.1175 -57.25 72.4375 C-58.19874999999999 72.334375 -59.14750000000001 72.23124999999999 -60.125 72.125 C-63.25 71.4375 -63.25 71.4375 -65.25 68.4375 C-65.95316038620922 63.613492699262366 -65.89435845750427 59.63075640278569 -63.5625 55.3125 C-61.25 53.4375 -61.25 53.4375 -58.6875 52.9375 C-55.79642940226566 53.530540122612166 -55.08040305502527 54.169610500504405 -53.25 56.4375 C-52.51953125 58.69921875 -52.51953125 58.69921875 -52.0625 61.125 C-51.903945312500014 61.933242187500014 -51.745390625 62.741484375 -51.58203125 63.57421875 C-51.47246093749999 64.18910156250001 -51.362890625000006 64.803984375 -51.25 65.4375 C-50.920000000000016 63.1275 -50.59 60.817499999999995 -50.25 58.4375 C-49.920000000000016 58.4375 -49.59 58.4375 -49.25 58.4375 C-49.25 60.41749999999999 -49.25 62.39750000000001 -49.25 64.4375 C-46.610000000000014 64.4375 -43.97 64.4375 -41.25 64.4375 C-41.25 65.7575 -41.25 67.07749999999999 -41.25 68.4375 C-40.948359374999995 68.46199218750002 -40.948359374999995 68.46199218750002 -39.421875 68.5859375 C-38.622656250000006 68.660703125 -37.82343750000001 68.73546875 -37 68.8125 C-36.21109375 68.882109375 -35.42218750000001 68.95171875 -34.609375 69.0234375 C-32.164123003298755 69.45257112856015 -30.401630972232283 70.22350637805243 -28.25 71.4375 C-28.579999999999984 72.0975 -28.909999999999997 72.7575 -29.25 73.4375 C-29.00378092874965 75.32234944198538 -28.681119129484614 77.19772087437198 -28.3125 79.0625 C-28.117851562499993 80.06539062500002 -27.923203124999986 81.06828124999998 -27.72265625 82.1015625 C-27.5666796875 82.87242187499999 -27.410703124999998 83.64328125 -27.25 84.4375 C-27.27320312500001 83.31730468749998 -27.29640624999999 82.197109375 -27.3203125 81.04296875 C-27.339072367326395 79.57031916487824 -27.35727233601571 78.09766237240962 -27.375 76.625 C-27.391757812500003 75.88701171874999 -27.408515625000007 75.1490234375 -27.42578125 74.388671875 C-27.460746282899834 70.52503573956653 -27.443975545219786 68.72846331782969 -25.25 65.4375 C-23.30468749999997 65.14453125 -23.30468749999997 65.14453125 -21.125 65.25 C-19.846249999999998 65.31187499999999 -18.567499999999995 65.37375 -17.25 65.4375 C-17.25 63.787499999999994 -17.25 62.13749999999999 -17.25 60.4375 C-15.930000000000007 60.4375 -14.610000000000014 60.4375 -13.25 60.4375 C-13.25 57.797500000000014 -13.25 55.1575 -13.25 52.4375 C-11.930000000000007 52.4375 -10.610000000000014 52.4375 -9.25 52.4375 C-9.25 47.1575 -9.25 41.8775 -9.25 36.4375 C-10.569999999999993 36.4375 -11.889999999999986 36.4375 -13.25 36.4375 C-13.25 31.1575 -13.25 25.877499999999998 -13.25 20.4375 C-15.22999999999999 20.1075 -17.210000000000008 19.777500000000003 -19.25 19.4375 C-21.125 17.875000000000014 -21.125 17.875000000000014 -22.25 16.4375 C-20.930000000000007 16.4375 -19.610000000000014 16.4375 -18.25 16.4375 C-17.920000000000016 14.457499999999996 -17.590000000000003 12.477499999999992 -17.25 10.4375 C-21.287750400888484 13.32746348489988 -25.112575416263496 16.164504294437634 -28.5 19.8125 C-31.25 22.4375 -31.25 22.4375 -35.25 22.4375 C-34.87172600050275 17.141664007038457 -33.157768741446745 13.914897734679485 -29.25 10.4375 C-20.08723770716776 3.6308765824674794 -11.458972968970386 -0.1491406460169742 0 0 Z " fill="#FDF2E1" transform="translate(249.25,99.5625)"/>
<path d="M0 0 C2.6557244614417073 2.078761958636477 4.550986054746076 4.125934140436115 6.4453125 6.9140625 C6.1953125 9.726562499999986 6.1953125 9.726562499999986 5.4453125 11.9140625 C2.4688617087731046 11.583345745419237 1.5009919223964943 10.974961868246169 -0.5546875 8.7265625 C-5.5208559905806 3.3867637781531528 -14.233571264071855 -0.6954510470674364 -21.5341796875 -1.231201171875 C-23.791164561977737 -1.255988558899844 -26.04755657305953 -1.2715934387851746 -28.3046875 -1.2734375 C-29.078125 -1.2856835937499937 -29.8515625 -1.2979296875000017 -30.6484375 -1.310546875 C-42.824863459185806 -1.3411922423469491 -54.11143407209278 3.269524010741776 -63.5546875 10.9140625 C-65.6171875 13.7890625 -65.6171875 13.7890625 -66.5546875 15.9140625 C-66.11576171875001 16.041679687499993 -66.11576171875001 16.041679687499993 -63.89453125 16.6875 C-49.54440065260514 21.95760644161635 -40.583884281785394 35.17738910730685 -34.3671875 48.44921875 C-32.430875442915294 53.10090591838707 -30.972196335358355 57.831397242774415 -29.5546875 62.6640625 C-27.611760947584834 69.02341056194348 -25.866003684800383 73.82025123538773 -19.9296875 77.2890625 C-14.348049833002051 79.75368172958349 -8.756595277481694 80.04472095414877 -2.98828125 78.0078125 C-1.4297399089767708 77.30734448156261 0.11327319556941973 76.5705398565643 1.6328125 75.7890625 C3.4453125 74.9140625 3.4453125 74.9140625 5.4453125 74.9140625 C5.4453125 71.9440625 5.4453125 68.9740625 5.4453125 65.9140625 C6.765312499999993 65.2540625 8.0853125 64.5940625 9.4453125 63.9140625 C9.713437499999998 64.86281250000002 9.981562499999995 65.81156249999998 10.2578125 66.7890625 C10.443437500000002 67.42585937500002 10.629062500000003 68.06265625 10.8203125 68.71875 C11.25896967484772 70.25953332665262 11.673606085174171 71.80726115199394 12.0703125 73.359375 C14.221396036152228 81.35260586729297 17.41022713994694 87.21261478379103 24.4296875 91.8515625 C30.663680469191775 95.13769832872123 37.50225569410928 96.27118686982493 44.4453125 96.9140625 C44.4453125 94.6040625 44.4453125 92.2940625 44.4453125 89.9140625 C46.095312500000006 90.24406249999998 47.74531250000001 90.5740625 49.4453125 90.9140625 C49.560683593750014 91.43355468749999 49.560683593750014 91.43355468749999 50.14453125 94.0625 C55.58133104893264 117.68817595298182 69.88599601014138 132.48827402283058 89.01171875 146.83984375 C91.67533963438868 149.11012094038585 93.58199857096344 151.4567972285646 95.6328125 154.2890625 C96.30699218749999 155.204296875 96.981171875 156.11953125000002 97.67578125 157.0625 C101.44716733338086 163.14000958249017 102.25185096585429 168.91372222585449 101.4453125 175.9140625 C98.57784719073501 187.7650425439876 90.46610408781777 194.6367321102622 80.5390625 200.94140625 C75.67434141069731 204.04328017689124 71.05549216535479 207.4491331629058 66.4453125 210.9140625 C65.775 211.39230468749997 65.10468750000001 211.870546875 64.4140625 212.36328125 C58.361179082566764 216.9958608830794 54.83060293727047 223.75819118818856 52.4453125 230.9140625 C51.39371370669724 246.82960577556275 51.39371370669724 246.82960577556275 55.4453125 252.9140625 C58.95896789737603 256.6935263435132 62.241887178000326 259.5481281467379 67.53125 260.15234375 C71.52764254573898 260.28191961752395 73.91099610930632 260.1975773195517 77.5078125 258.2890625 C79.4453125 255.9140625 79.4453125 255.9140625 79.7578125 252.6640625 C79.70625000000001 252.2103125 79.70625000000001 252.2103125 79.4453125 249.9140625 C79.11531249999999 250.57406250000003 78.7853125 251.2340625 78.4453125 251.9140625 C76.44531249999997 253.9140625 76.44531249999997 253.9140625 72.5703125 254.4765625 C69.13628763877469 254.30612376607888 68.4432002930607 253.91240946848228 65.5703125 251.6640625 C60.88049366783687 245.59488518778892 60.696110952775086 240.46445731359125 61.4453125 232.9140625 C63.53116186069866 224.7386529251811 70.63932954284468 219.26514427611193 77.531982421875 215.00732421875 C80.93807482936523 213.1155807467241 84.367437001892 211.28147469219283 87.8203125 209.4765625 C100.02362218503669 203.09570246937534 111.80651500537886 196.44452593840066 118.4453125 183.9140625 C118.85652343749999 183.16769531249997 119.267734375 182.421328125 119.69140625 181.65234375 C123.91120831177199 172.8185020635915 123.96392254992696 162.4565545110366 120.8828125 153.2265625 C120.11532597872107 151.43576061701583 119.30117899880827 149.6643480426079 118.4453125 147.9140625 C118.22552734375 147.44935546875 118.22552734375 147.44935546875 117.11328125 145.09765625 C111.5175275367047 134.45864096219043 102.84876798311063 125.9180744784303 94.1171875 117.78515625 C85.2091885468758 109.42917515813417 77.07997884128707 98.63715084851776 76.25 85.921875 C76.27320312500001 84.970546875 76.29640624999999 84.01921875 76.3203125 83.0390625 C76.33835937500001 82.072265625 76.35640624999999 81.10546875 76.375 80.109375 C76.39820312500001 79.384921875 76.42140624999999 78.66046875 76.4453125 77.9140625 C78.3203125 77.2890625 78.3203125 77.2890625 80.4453125 76.9140625 C83.17281754506814 79.64156754506814 82.84481170325967 81.54195264971514 83.1953125 85.3515625 C84.38853615321634 94.56590071094831 87.76576545971812 101.48094535052462 94.4453125 107.9140625 C95.55951433489295 109.19708279472519 96.66380193978961 110.48878264562106 97.7578125 111.7890625 C100.55654610852156 115.02528551627762 103.5095779676873 117.74960688188162 106.80078125 120.46875 C109.37215734776228 122.72862923081246 111.39142504961166 125.17554589948219 113.4453125 127.9140625 C113.4453125 128.5740625 113.4453125 129.2340625 113.4453125 129.9140625 C114.43531250000001 130.2440625 115.42531249999999 130.5740625 116.4453125 130.9140625 C126.22522318318855 144.22839675657906 130.5635765045299 157.3832033026015 129.4453125 173.9140625 C127.2466842144672 186.4056321222629 120.59382395084194 196.40416402637698 110.4453125 203.9140625 C109.7853125 203.9140625 109.1253125 203.9140625 108.4453125 203.9140625 C108.4453125 204.57406249999997 108.4453125 205.2340625 108.4453125 205.9140625 C102.45341387743196 210.07327418123316 95.81387503994509 213.25374073156075 89.2578125 216.4140625 C81.01643313474122 220.47555995514415 72.70024813711615 225.4041912257677 68.4453125 233.9140625 C68.298907489112 235.5554879105327 68.22434661277956 237.20387659975972 68.1953125 238.8515625 C68.16953125 239.72683593750003 68.14375000000001 240.602109375 68.1171875 241.50390625 C68.50240893406024 244.33344940256166 69.25226007048198 245.1653917469896 71.4453125 246.9140625 C71.79593750000001 246.25406250000003 72.14656249999999 245.5940625 72.5078125 244.9140625 C74.4453125 242.9140625 74.4453125 242.9140625 77.8203125 242.3515625 C82.37279572302097 243.0579823104688 83.7297459957 244.24006075888826 86.4453125 247.9140625 C87.98330394206823 252.2396634308169 87.5276362678064 255.78936679561951 85.77734375 259.9453125 C82.64190407095757 264.5795107353003 77.49852983032105 267.19474519675487 72.140625 268.45703125 C65.09738595363433 268.9207320413088 59.19283288978349 265.61837592903004 53.62109375 261.59765625 C48.13019563670835 256.7429831070142 45.785733004507534 250.46744057514042 45.09765625 243.28515625 C44.77646118155363 229.44583830085395 48.05051630672446 220.35085270232798 57.1640625 209.953125 C58.75781249999997 208.2890625 58.75781249999997 208.2890625 61.4453125 205.9140625 C62.1053125 205.9140625 62.76531249999999 205.9140625 63.4453125 205.9140625 C63.4453125 205.25406250000003 63.4453125 204.5940625 63.4453125 203.9140625 C64.3528125 203.4396875 65.2603125 202.96531249999998 66.1953125 202.4765625 C70.93150076656477 199.7853272120742 75.16609211949205 196.44371388267632 79.48046875 193.1328125 C82.4453125 190.9140625 82.4453125 190.9140625 85.640625 188.91796875 C88.50523019208885 186.8712522269616 89.68991528059198 185.45065031495028 91.2578125 182.3515625 C91.6561328125 181.5871484375 92.05445312500001 180.82273437499998 92.46484375 180.03515625 C94.94831400892625 174.66254927551017 95.63728830695646 169.29811088853012 93.64453125 163.640625 C87.87025918712365 152.33019518611854 76.79322454348153 144.73216334754358 67.0625 137.02734375 C56.313427298541285 128.09475197544285 48.373746742170056 115.58008896346027 45.4453125 101.9140625 C44.597109375 101.9952734375 43.748906250000005 102.076484375 42.875 102.16015625 C32.63912537927236 102.71131872957764 26.002503836245737 100.564213101327 17.4453125 94.9140625 C14.542968750000014 92.30078125 14.542968750000014 92.30078125 12.4453125 89.9140625 C12.4453125 89.2540625 12.4453125 88.5940625 12.4453125 87.9140625 C11.785312500000003 87.9140625 11.125312500000007 87.9140625 10.4453125 87.9140625 C9.455312500000005 85.6040625 8.465312499999996 83.2940625 7.4453125 80.9140625 C6.4140625 81.5534375 5.3828125 82.1928125 4.3203125 82.8515625 C-2.7629338728433197 86.37431380443363 -11.731245608421034 87.03960644965468 -19.3671875 84.9765625 C-25.397614283370118 82.38729003353438 -30.72931350089499 79.01947184711821 -33.48193359375 72.82861328125 C-35.23912406545818 68.06249428607538 -36.591867450967406 63.19950600146558 -37.8974609375 58.2939453125 C-40.06919848162522 50.429867459553236 -42.37472517689591 42.59962783725575 -48.5546875 36.9140625 C-49.2765625 35.985937500000006 -49.9984375 35.05781250000001 -50.7421875 34.1015625 C-54.926266483952 29.01999225362931 -60.72162152693358 24.913925000434176 -66.5546875 21.9140625 C-67.54468750000001 21.9140625 -68.5346875 21.9140625 -69.5546875 21.9140625 C-71.8046875 19.7890625 -71.8046875 19.7890625 -73.5546875 16.9140625 C-73.5546875 11.953959522722158 -71.7821251707158 9.525453962576819 -68.5546875 5.9140625 C-47.97762283540752 -9.454832070914563 -22.351108609585083 -14.270824447519331 0 0 Z " fill="#C79A69" transform="translate(85.5546875,108.0859375)"/>
<path d="M0 0 C1.1488913258080515 3.93905597419905 1.525826950887307 7.935659579034052 2 12 C2.6599999999999966 12 3.319999999999993 12 4 12 C4.145664062500003 12.38671875 4.145664062500003 12.38671875 4.8828125 14.34375 C5.292734375000009 15.385312499999998 5.70265624999999 16.426874999999995 6.125 17.5 C6.322226562499992 18.01046875 6.322226562499992 18.01046875 7.3203125 20.59375 C11.79775746732011 29.67359188721659 19.08893377268339 36.250687441651394 26.279296875 43.201171875 C33.21226090783824 49.99348405932756 39.25531287505373 57.02290908031222 43.8125 65.625 C44.094160156249984 66.1470703125 44.094160156249984 66.1470703125 45.51953125 68.7890625 C49.683683948570945 77.82054935547575 50.63177049642445 87.60953135818886 48.16015625 97.2890625 C41.12380050057493 115.62623202880468 25.551967379595283 124.0104409823486 9.052734375 132.798828125 C1.0067074358538832 137.17905956951984 -7.5519486270584935 141.92277497458957 -11.375 150.6953125 C-13.040591092901423 156.837179655074 -13.232479887002285 163.50992396585298 -10.125 169.1875 C-8 172 -8 172 -6 173 C-0.6809210526316463 173.422149122807 -0.6809210526316463 173.422149122807 2 173 C4 171 4 171 5 169 C6 170 6 170 6.4375 172.75 C6 176 6 176 3.5625 178.875 C0.19697995099829768 181.34145677350006 -2.73496092060077 181.61234754609245 -6.83203125 181.3515625 C-12.884695870643782 180.37004931827397 -17.351912585099598 176.7583748890005 -21 172 C-24.20884896604676 164.9988749831707 -24.243671906598223 155.74856546155684 -22.3125 148.375 C-21.366574019651154 146.1047776471628 -20.29748355753523 144.08813760040823 -19 142 C-18.587500000000006 141.3258203125 -18.17500000000001 140.65164062500003 -17.75 139.95703125 C-12.088412759390621 131.64157499035497 -3.646992247071438 126.36928810633299 4.625 120.9375 C13.893948340687956 114.83001769372447 22.156038757223996 109.14777342421576 25.61328125 98.02734375 C27.193108448156494 89.74521934754318 26.04431487963626 82.588856987687 21.40625 75.59765625 C17.153357683984865 69.9416580674307 12.340283703461466 65.57522335769755 6.796875 61.2109375 C-10.688924370165438 47.3883642548692 -22.60066941345582 32.516358043545125 -26 10 C-25.340000000000003 10 -24.680000000000007 10 -24 10 C-24 10.659999999999997 -24 11.319999999999993 -24 12 C-21.360000000000014 12 -18.72 12 -16 12 C-16 9.360000000000014 -16 6.719999999999999 -16 4 C-13.360000000000014 4 -10.719999999999999 4 -8 4 C-8 3.009999999999991 -8 2.0200000000000102 -8 1 C-5.360000000000014 0.6699999999999875 -2.719999999999999 0.3400000000000034 0 0 Z " fill="#FCF2E1" transform="translate(160,188)"/>
<path d="M0 0 C0.8733096313476665 -0.0016717529296883527 1.7466192626953045 -0.0033435058593767053 2.646392822265625 -0.00506591796875 C41.26262658683794 -0.009484099697587567 41.26262658683794 -0.009484099697587567 50.0625 7.5625 C53.17360624263176 11.17810995765312 54.450156335124916 13.446247957001958 54.25 18.25 C53.16615968902539 21.966023923341496 52.26931000403903 23.638061703672093 49.375 26.25 C41.78072375722226 29.438537586253375 33.72448386880899 30.36270182890405 25.54443359375 30.4111328125 C24.225511169433588 30.420740356445307 22.906588745117176 30.43034790039063 21.547698974609375 30.44024658203125 C20.122946939247754 30.445097086875734 18.698192857725417 30.449375293738328 17.2734375 30.453125 C16.545868721008304 30.455952377319335 15.818299942016608 30.45877975463867 15.068683624267578 30.461692810058594 C11.215219064501838 30.47663133262688 7.361791399054482 30.485893414377017 3.50830078125 30.490234375 C-0.4351786707369456 30.495699061163194 -4.378309397993462 30.519699795810666 -8.321680068969727 30.548206329345703 C-11.386392489782622 30.567001829678844 -14.45102389179388 30.57204728383917 -17.515789031982422 30.573570251464844 C-18.967593103608635 30.576561332443617 -20.419397005466635 30.584466864328775 -21.871143341064453 30.597755432128906 C-44.43513479873464 30.789491883823857 -44.43513479873464 30.789491883823857 -52.875 24.4375 C-54.971701533200275 22.32515144043255 -55.67627130381797 21.11327652315208 -56.75 18.25 C-56.53689721471575 13.135533153178159 -54.57285780355993 10.295073988540423 -51.1875 6.5625 C-38.6082235568863 -3.002671085106016 -15.112470937030196 0.015400970512558843 0 0 Z " fill="#F8D6B1" transform="translate(155.625,63.75)"/>
<path d="M0 0 C0.7727929687499966 -0.012246093749993747 1.5455859375000003 -0.024492187500001705 2.341796875 -0.037109375 C7.300777731418549 -0.04968498156742385 11.359978398576459 0.6032949864711696 16.0625 2.1875 C15.732500000000002 2.8474999999999966 15.402500000000003 3.507499999999993 15.0625 4.1875 C15.887500000000003 4.517499999999998 15.887500000000003 4.517499999999998 20.0625 6.1875 C19.7325 11.467500000000001 19.402500000000003 16.747500000000002 19.0625 22.1875 C17.742500000000007 22.1875 16.4225 22.1875 15.0625 22.1875 C15.0625 30.107500000000016 15.0625 38.0275 15.0625 46.1875 C16.382499999999993 46.1875 17.7025 46.1875 19.0625 46.1875 C19.0625 48.827499999999986 19.0625 51.4675 19.0625 54.1875 C20.382499999999993 54.1875 21.7025 54.1875 23.0625 54.1875 C23.0625 56.827499999999986 23.0625 59.4675 23.0625 62.1875 C25.7025 62.1875 28.3425 62.1875 31.0625 62.1875 C32.992029742877065 66.04655948575413 34.18733820928841 68.44882534981122 34.125 72.8125 C34.115976562499995 73.629765625 34.106953125000004 74.44703125000001 34.09765625 75.2890625 C34.086054687499995 75.91554687500002 34.074453125000005 76.54203124999998 34.0625 77.1875 C32.79294700165441 77.83584654309811 31.52180293683037 78.4810781527039 30.25 79.125 C29.542304687500007 79.4846484375 28.834609375 79.844296875 28.10546875 80.21484375 C22.60746538413113 82.83243999875975 16.671953128046027 83.22412494680907 10.8046875 81.5390625 C5.090437854827037 78.99698185937172 1.6296197030301798 74.93947245341087 -0.785400390625 69.157470703125 C-1.5143264987535616 66.99284971812284 -2.1728362120059757 64.81759107167113 -2.8125 62.625 C-8.287414295550846 45.22527237578362 -16.105696268331357 31.065268034312 -31.9375 21.1875 C-33.92430204838382 20.161528450424754 -35.92121813917315 19.15425098019118 -37.9375 18.1875 C-36.60914363514249 12.54198544935555 -32.572207443215746 10.14426415094431 -27.9375 7.1875 C-25.32521437822115 5.715992319475035 -22.673847554333413 4.410877848265699 -19.9375 3.1875 C-19.07125 2.795625000000001 -18.205 2.4037500000000023 -17.3125 2 C-11.639870790463085 0.05936369147421772 -5.9258993074713615 0.004917758761393998 0 0 Z " fill="#FDF2E1" transform="translate(56.9375,105.8125)"/>
<path d="M0 0 C0.8270141601562386 0.0075732421875045475 1.6540283203125057 0.015146484374994884 2.506103515625 0.02294921875 C9.75359430855309 0.2158401830299681 16.0468719089439 1.6225380719974396 22.75 4.4375 C23.75289062500002 4.849999999999994 24.755781249999984 5.262500000000003 25.7890625 5.6875 C33.75558566967641 9.310518289051814 40.52558145524159 14.301371079989934 46.75 20.4375 C46.75 21.097499999999997 46.75 21.757499999999993 46.75 22.4375 C47.40999999999997 22.4375 48.06999999999999 22.4375 48.75 22.4375 C48.75 25.0775 48.75 27.7175 48.75 30.4375 C48.02296875000002 30.743007812499997 47.29593749999998 31.048515624999993 46.546875 31.36328125 C34.706764978232286 36.75204927272762 23.480284622694853 45.61988063814843 18.1875 57.8125 C17.76468749999998 58.781875000000014 17.341875000000016 59.75125 16.90625 60.75 C16.524687500000027 61.636875 16.143124999999998 62.52375000000001 15.75 63.4375 C15.234375 64.55124999999998 14.71875 65.66500000000002 14.1875 66.8125 C12.75 70.43750000000003 12.75 70.43750000000003 11.9609375 73.3671875 C9.75296642284269 81.5270806112336 6.891929220351585 88.43516008011093 0.75 94.4375 C-1.6811276641932977 95.68746658206166 -3.7957993966121535 96.41870364835347 -6.46484375 96.97265625 C-7.053945312499991 97.12605468750002 -7.64304687500001 97.279453125 -8.25 97.4375 C-8.579999999999984 98.0975 -8.909999999999997 98.7575 -9.25 99.4375 C-12.085433663065004 99.37691381061825 -14.916001454925834 99.28966609175032 -17.75 99.1875 C-18.54148437500001 99.17332031249998 -19.332968749999992 99.15914062500002 -20.1484375 99.14453125 C-26.126760919288074 98.89951799511113 -30.058725326898497 97.41414832173251 -35.25 94.4375 C-35.65089843749999 94.94539062500002 -36.05179687500001 95.45328125 -36.46484375 95.9765625 C-41.92015522815328 102.58231381368222 -48.589906513851986 108.73944245369648 -57.25 110.4375 C-61.256358161950686 110.58187326709731 -65.24331171336996 110.55419965883388 -69.25 110.4375 C-68.91999999999999 108.7875 -68.59 107.13749999999999 -68.25 105.4375 C-67.4881640625 105.3511328125 -66.72632812500001 105.264765625 -65.94140625 105.17578125 C-55.70888225489415 103.78334040672092 -48.330605100059586 100.8068506778506 -41.6875 92.6875 C-38.34939781593849 87.4626444075559 -37.421755307877476 81.4347567121365 -36.25 75.4375 C-34.93000000000001 75.76749999999998 -33.610000000000014 76.0975 -32.25 76.4375 C-32.08500000000001 78.41749999999999 -32.08500000000001 78.41749999999999 -31.25 88.4375 C-23.557267346588986 92.34491976046274 -17.551053724046028 93.92148115564362 -9.125 91.4375 C-1.8020036161311168 88.203780804747 1.52662335095701 82.45907119251169 4.321533203125 75.254150390625 C4.903996147856844 73.69593474851607 5.483206747077816 72.13649989793231 6.059326171875 70.575927734375 C10.716692074304774 57.96507508464617 15.85771191550424 46.82737765638649 25.75 37.4375 C26.45511718749998 36.75945312499999 27.160234375000016 36.081406249999986 27.88671875 35.3828125 C36.540845435684616 27.4375 36.540845435684616 27.4375 41.75 27.4375 C37.42977620324956 19.18458078693854 28.220436434300666 13.889036106102836 19.75 10.4375 C19.074531250000007 10.139726562500002 18.399062500000014 9.841953125000003 17.703125 9.53515625 C8.176666833456636 5.970946901482918 -5.150100956658719 5.536801915295726 -14.8125 8.875 C-21.27230781565723 12.019757056128384 -26.22974364849381 17.417243648493795 -31.25 22.4375 C-32.56999999999999 22.4375 -33.889999999999986 22.4375 -35.25 22.4375 C-34.87172600050275 17.141664007038457 -33.157768741446745 13.9148977346795 -29.25 10.4375 C-20.08723770716776 3.6308765824674794 -11.458972968970386 -0.1491406460169742 0 0 Z " fill="#C69A6A" transform="translate(249.25,99.5625)"/>
<path d="M0 0 C3.125 0.4375 3.125 0.4375 5.5 2.5 C7.493142726790978 6.102988775352912 7.501266001374574 8.373827185154454 7.125 12.4375 C6.795000000000016 13.427500000000009 6.465000000000003 14.41749999999999 6.125 15.4375 C7.115000000000009 15.767500000000013 8.10499999999999 16.097499999999997 9.125 16.4375 C7.805000000000007 17.42750000000001 6.485000000000014 18.41749999999999 5.125 19.4375 C5.289999999999992 19.932500000000005 5.289999999999992 19.932500000000005 6.125 22.4375 C4.805000000000007 22.767499999999984 3.4849999999999994 23.097499999999997 2.125 23.4375 C4.105000000000004 23.767499999999984 4.105000000000004 23.767499999999984 14.125 25.4375 C14.125 31.377499999999998 14.125 37.317499999999995 14.125 43.4375 C12.125 44.4375 12.125 44.4375 9.125 44.4375 C10.115000000000009 45.42750000000001 11.10499999999999 46.41749999999999 12.125 47.4375 C10.805000000000007 47.4375 9.485000000000014 47.4375 8.125 47.4375 C8.125 49.7475 8.125 52.057500000000005 8.125 54.4375 C-1.6314018465311335 54.97952232480728 -9.381883314454484 52.760242050146275 -16.90234375 46.3671875 C-23.86135280118357 39.55976082418874 -25.249538277332903 31.84667680112986 -26.875 22.4375 C-28.194999999999993 22.767499999999984 -29.515 23.097499999999997 -30.875 23.4375 C-30.875 22.44749999999999 -30.875 21.45750000000001 -30.875 20.4375 C-29.555000000000007 20.107500000000016 -28.235 19.777500000000003 -26.875 19.4375 C-27.534999999999997 18.777500000000003 -28.194999999999993 18.117500000000007 -28.875 17.4375 C-27.885000000000005 17.4375 -26.894999999999996 17.4375 -25.875 17.4375 C-25.875 16.117500000000007 -25.875 14.797500000000014 -25.875 13.4375 C-20.574941536469638 11.205896436408267 -15.544469707817854 10.978390400308541 -9.875 11.4375 C-9.545000000000002 11.767500000000013 -9.215000000000003 12.097499999999997 -8.875 12.4375 C-8.609453125000002 11.738828124999998 -8.343906250000003 11.040156249999995 -8.0703125 10.3203125 C-7.717109375000007 9.410234374999987 -7.363906249999999 8.500156250000003 -7 7.5625 C-6.651953125000006 6.657578124999986 -6.303906249999997 5.752656250000001 -5.9453125 4.8203125 C-4.446178055290858 1.4828234077643287 -3.6679992827862975 0.5581738039022639 0 0 Z " fill="#FDEBD9" transform="translate(121.875,150.5625)"/>
<path d="M0 0 C2.1395126201742016 0.003167843287272376 4.2776487732835164 -0.020396115803897885 6.4169921875 -0.045654296875 C16.257055342989645 -0.09097418645983879 25.4463893068328 0.5571871524172209 33.1435546875 7.315673828125 C34.69629171225813 10.874029509862353 35.33118881974542 13.16306415861753 34.7060546875 17.003173828125 C31.303225710390564 22.03936071424699 25.82877717946434 23.70697581706453 20.102783203125 24.912109375 C14.10417211905252 25.73016928111103 8.04922825161259 25.64833538717466 2.00537109375 25.63134765625 C-0.35137939470266133 25.628180635746602 -2.7068798557765206 25.6517334271212 -5.0634765625 25.677001953125 C-14.213826280103746 25.71521305512789 -21.634838917774488 25.144043958601316 -29.8564453125 20.690673828125 C-32.78518808896757 17.21279178106976 -32.75224918364083 13.748745492315237 -32.8564453125 9.315673828125 C-31.391675754528364 8.171991542777633 -29.908633235474014 7.051704394726627 -28.4189453125 5.940673828125 C-27.595234375000004 5.314189453124996 -26.771523437499994 4.687705078124999 -25.9228515625 4.042236328125 C-17.913379689960976 -0.46755547781417306 -8.96870678780951 -0.027757345629396468 0 0 Z " fill="#C19566" transform="translate(153.8564453125,37.684326171875)"/>
<path d="M0 0 C0.8733096313476665 -0.0016717529296883527 1.7466192626953045 -0.0033435058593767053 2.646392822265625 -0.00506591796875 C41.26262658683794 -0.009484099697587567 41.26262658683794 -0.009484099697587567 50.0625 7.5625 C53.17360624263176 11.17810995765312 54.450156335124916 13.446247957001958 54.25 18.25 C53.16615968902539 21.966023923341496 52.26931000403903 23.638061703672093 49.375 26.25 C41.78072375722226 29.438537586253375 33.72448386880899 30.36270182890405 25.54443359375 30.4111328125 C24.225511169433588 30.420740356445307 22.906588745117176 30.43034790039063 21.547698974609375 30.44024658203125 C20.122946939247754 30.445097086875734 18.698192857725417 30.449375293738328 17.2734375 30.453125 C16.545868721008304 30.455952377319335 15.818299942016608 30.45877975463867 15.068683624267578 30.461692810058594 C11.215219064501838 30.47663133262688 7.361791399054482 30.485893414377017 3.50830078125 30.490234375 C-0.4351786707369456 30.495699061163194 -4.378309397993462 30.519699795810666 -8.321680068969727 30.548206329345703 C-11.386392489782622 30.567001829678844 -14.45102389179388 30.57204728383917 -17.515789031982422 30.573570251464844 C-18.967593103608635 30.576561332443617 -20.419397005466635 30.584466864328775 -21.871143341064453 30.597755432128906 C-44.43513479873464 30.789491883823857 -44.43513479873464 30.789491883823857 -52.875 24.4375 C-54.971701533200275 22.32515144043255 -55.67627130381797 21.11327652315208 -56.75 18.25 C-56.53689721471575 13.135533153178159 -54.57285780355993 10.295073988540423 -51.1875 6.5625 C-38.6082235568863 -3.002671085106016 -15.112470937030196 0.015400970512558843 0 0 Z M-47.625 11.25 C-49.77694369870201 14.477915548053005 -49.82586442745816 15.53400809202408 -49.625 19.25 C-48.178785954636126 20.083880864454486 -46.71702165538642 20.890794393305526 -45.25 21.6875 C-44.437890624999994 22.139960937500007 -43.62578125 22.592421875 -42.7890625 23.05859375 C-34.31197552233205 26.250583290973736 -24.43267585885519 25.42318650716261 -15.5078125 25.453125 C-14.84794216156007 25.455952377319335 -14.188071823120112 25.45877975463867 -13.50820541381836 25.461692810058594 C-10.018975501793733 25.476571643620034 -6.5297857615822466 25.485873492138893 -3.04052734375 25.490234375 C0.5252012008804172 25.495716987226942 4.090547602435208 25.519773083899338 7.656156539916992 25.548206329345703 C10.43430607315716 25.56699616073105 13.212366227150596 25.572046795961512 15.99057388305664 25.573570251464844 C17.93344835250349 25.577991336817576 19.87627462874616 25.596545328868984 21.819061279296875 25.61553955078125 C40.3903087445691 25.569405959491988 40.3903087445691 25.569405959491988 46.713348388671875 20.30206298828125 C48.375 18.25 48.375 18.25 48.3125 15.6875 C47.287870761755556 13.023463980564443 46.676492347250814 11.916597906629903 44.375 10.25 C37.920320979946666 7.609449491796354 31.318727229674835 7.130672427445603 24.405029296875 7.072998046875 C23.747073669433576 7.066426849365229 23.089118041992208 7.059855651855472 22.411224365234375 7.0530853271484375 C20.257220925613353 7.033549590259568 18.103286441092166 7.021735752322499 15.94921875 7.01171875 C15.206872959136945 7.007643222808838 14.464527168273946 7.003567695617676 13.699686050415039 6.999368667602539 C9.771880218696367 6.978594174476029 5.844108449755964 6.964254238994499 1.916259765625 6.954833984375 C-2.1150502538313276 6.943773452958354 -6.1458078099346665 6.909353268121677 -10.176922798156738 6.869662284851074 C-13.300704427563915 6.84338259082655 -16.424356334090874 6.835132286973007 -19.54823875427246 6.831552505493164 C-21.033243090370974 6.826717676082453 -22.518242862374848 6.8151935402474635 -24.003137588500977 6.796514511108398 C-32.31543566001869 6.698427222674937 -40.35393254867434 6.660032749730405 -47.625 11.25 Z " fill="#C39665" transform="translate(155.625,63.75)"/>
<path d="M0 0 C2.891070597734341 0.593040122612166 3.6070969449746997 1.2321105005043762 5.4375 3.5 C6.16796875 5.76171875 6.16796875 5.76171875 6.625 8.1875 C6.783554687499986 8.995742187500014 6.942109375000001 9.803984374999999 7.10546875 10.63671875 C7.215039062500011 11.251601562500014 7.324609374999994 11.866484374999999 7.4375 12.5 C7.767499999999984 10.189999999999998 8.097499999999997 7.8799999999999955 8.4375 5.5 C8.767499999999984 5.5 9.097499999999997 5.5 9.4375 5.5 C9.4375 7.47999999999999 9.4375 9.460000000000008 9.4375 11.5 C12.077499999999986 11.5 14.717500000000001 11.5 17.4375 11.5 C17.4375 12.819999999999993 17.4375 14.139999999999986 17.4375 15.5 C19.747500000000002 16.159999999999997 22.057500000000005 16.819999999999993 24.4375 17.5 C24.602499999999992 18.32499999999999 24.602499999999992 18.32499999999999 25.4375 22.5 C24.44749999999999 22.5 23.45750000000001 22.5 22.4375 22.5 C22.42460937499999 22.814531250000016 22.42460937499999 22.814531250000016 22.359375 24.40625 C21.754981560796182 33.52709644616681 19.086562700100615 39.71268243598274 12.3359375 45.96484375 C5.450680539164125 51.53255153931792 -1.915596664381809 52.49822461355643 -10.5625 53.5 C-10.892500000000013 52.84 -11.222499999999997 52.18000000000001 -11.5625 51.5 C-10.737500000000011 51.33500000000001 -10.737500000000011 51.33500000000001 -6.5625 50.5 C-6.5625 49.84 -6.5625 49.18000000000001 -6.5625 48.5 C-3.9225000000000136 48.5 -1.2824999999999989 48.5 1.4375 48.5 C0.3031249999999943 48.355625 -0.8312500000000114 48.21125000000001 -2 48.0625 C-5.5625 47.5 -5.5625 47.5 -6.5625 46.5 C-6.603429374234338 44.167025668643305 -6.60491723189088 41.83294775399776 -6.5625 39.5 C-9.202499999999986 39.5 -11.842500000000001 39.5 -14.5625 39.5 C-14.5625 36.860000000000014 -14.5625 34.22 -14.5625 31.5 C-13.572499999999991 31.5 -12.58250000000001 31.5 -11.5625 31.5 C-11.5625 28.860000000000014 -11.5625 26.22 -11.5625 23.5 C-9.91690243501455 23.165504669186248 -8.271015016959865 22.832435010437905 -6.625 22.5 C-5.70847656250001 22.314374999999984 -4.791953124999992 22.128749999999997 -3.84765625 21.9375 C-1.8334565634682747 21.551875444629815 -0.5852522309905339 21.5 1.4375 21.5 C1.4375 20.840000000000003 1.4375 20.180000000000007 1.4375 19.5 C0.48875000000001023 19.396874999999994 -0.46000000000000796 19.29374999999999 -1.4375 19.1875 C-4.5625 18.5 -4.5625 18.5 -6.5625 15.5 C-7.26566038620922 10.675992699262338 -7.206858457504268 6.693256402785693 -4.875 2.375 C-2.5625 0.5 -2.5625 0.5 0 0 Z " fill="#FEEAD8" transform="translate(190.5625,152.5)"/>
<path d="M0 0 C3.3513926259979883 0.2792827188331586 4.684221256208559 0.6570840204139756 7 3.171875 C12.841762978272158 11.432492961462984 15.38498613940348 20.97390468649212 14 31 C12.824370647392925 34.350543654930135 11.663939673669546 36.23391576115051 9.375 38.875 C5.6299208399996985 40.64898486526329 2.060949454583408 40.659904286369795 -2 40 C-5.599813949781918 37.855429987363976 -7.48763319961148 35.866398602732374 -9 32 C-10.257814739707612 20.984190911192172 -8.699181036972476 11.135980994320192 -1.828125 2.1640625 C-1.224843749999991 1.4499218750000011 -0.6215625000000102 0.7357812500000023 0 0 Z " fill="#C27851" transform="translate(154,110)"/>
<path d="M0 0 C1.236855468750008 -0.012246093750000853 2.473710937500016 -0.024492187500001705 3.748046875 -0.037109375 C20.33391436678471 -0.06370349711403378 20.33391436678471 -0.06370349711403378 26.0625 5.1875 C26.0625 7.499999999999993 26.0625 7.499999999999993 25.0625 10.1875 C19.357726156221304 12.853182355652805 14.637628498728645 13.627476460274039 8.3984375 13.55078125 C8.000585479736344 13.551030502319335 8.000585479736344 13.551030502319335 5.987213134765625 13.552291870117188 C4.318272710344445 13.549967668718779 2.6493276750186396 13.540337887647958 0.98046875 13.523681640625 C-1.5628206392568984 13.499997014016138 -4.105065014986252 13.50314481347904 -6.6484375 13.509765625 C-8.278652030032134 13.504190445450497 -9.908862189953368 13.497081572654174 -11.5390625 13.48828125 C-12.29232818603515 13.489192657470703 -13.045593872070299 13.490104064941406 -13.821685791015625 13.491043090820313 C-19.196143139219714 13.41934275282047 -24.009403543743645 13.11559645625637 -27.9375 9.1875 C-27.9375 6.75 -27.9375 6.75 -26.9375 4.1875 C-19.040705688277 -1.0770295411486757 -9.093808559449883 0.004724056394522336 0 0 Z " fill="#F8D6B2" transform="translate(155.9375,43.8125)"/>
<path d="M0 0 C0 0.6600000000000001 0 1.3200000000000003 0 2 C0.6599999999999966 2 1.3199999999999932 2 2 2 C4.42204249992659 6.289641536014546 4.872124831189296 10.155821482205909 4 15 C1.8184085480327496 17.75569446564284 0.12822506443669113 19.43588746778166 -3 21 C-11.934343434343447 21.439393939393938 -11.934343434343447 21.439393939393938 -16 19 C-18.37366445236256 16.135232557493445 -18.96626407338499 14.265067994832279 -19.4375 10.5625 C-18.92274218524767 6.37090065130252 -17.67714369018836 4.2283203322859535 -15 1 C-14.340000000000003 1 -13.680000000000007 1 -13 1 C-13 0.33999999999999986 -13 -0.3200000000000003 -13 -1 C-8.434040515506865 -2.5805244369399354 -4.46941792237331 -1.4898059741244332 0 0 Z " fill="#C4986B" transform="translate(163,14)"/>
<path d="M0 0 C0.6599999999999966 0 1.3199999999999932 0 2 0 C6.605675905732454 7.2868372365695535 8.697014453881565 14.362781607140704 7 23 C5.16015625 25.3828125 5.16015625 25.3828125 3 27 C-0.125 27 -0.125 27 -3 26 C-5.670088864797776 21.82347586350889 -5.616248146651714 17.799485565687576 -5 13 C-3.693966739438565 8.520483205857118 -2.087991007813173 4.175982015626374 0 0 Z " fill="#E47D64" transform="translate(155,118)"/>
<path d="M0 0 C2.375 0.0625 2.375 0.0625 5 1 C12.022932919758063 8.68391484161765 14.604029194946747 18.317307092337302 14.37109375 28.5390625 C14 31 14 31 12 34 C11.835000000000008 32.349999999999994 11.835000000000008 32.349999999999994 11 24 C10.670000000000016 24 10.340000000000003 24 10 24 C9.896874999999994 23.236874999999998 9.793749999999989 22.473749999999995 9.6875 21.6875 C8.918397865451567 18.68100983767428 8.171271753499383 18.08776130144173 6 16 C3 10.555555555555557 3 10.555555555555557 3 8 C2.009999999999991 8 1.0200000000000102 8 0 8 C-0.3300000000000125 8.495000000000005 -0.3300000000000125 8.495000000000005 -2 11 C-3.3138716863366824 12.352514971228928 -4.6442625165369975 13.689453765985746 -6 15 C-6.659999999999997 14.670000000000002 -7.319999999999993 14.340000000000003 -8 14 C-7.0466103083378755 12.03925516243072 -6.087124604229189 10.081473477499515 -5.125 8.125 C-4.59132812499999 7.034453124999999 -4.057656250000008 5.943906249999998 -3.5078125 4.8203125 C-2 2 -2 2 0 0 Z " fill="#C6805B" transform="translate(154,110)"/>
<path d="M0 0 C3 0.6875 3 0.6875 5.375 2.75 C7.404005303131157 6.41781727873709 7.517604908481161 8.546660732150741 7 12.6875 C5.843601943947149 15.000296112105701 4.8259017202775425 16.86159827972247 3 18.6875 C-2.38495412844037 19.155756880733946 -2.38495412844037 19.155756880733946 -4.63671875 17.44140625 C-7.1180065765763345 14.24914769947631 -7.214524691538713 10.629391207023872 -7 6.6875 C-5.2127667045832595 2.6126080864498533 -4.395552126173811 1.0073140289148341 0 0 Z " fill="#B18052" transform="translate(122,150.3125)"/>
<path d="M0 0 C2.878977542538081 0.5905594959052394 3.6164384816989923 1.2426953324681165 5.4375 3.5 C6.7553872026262525 7.879055578346737 6.697093547079902 11.64486831550147 5.375 16 C3.4375 18.5 3.4375 18.5 0.5 19.625 C-2.5625 19.5 -2.5625 19.5 -4.9375 18.1875 C-7.4294860434906695 14.066138466534653 -7.312674088591933 10.190482432711264 -6.5625 5.5 C-4.705032831420738 2.06024598411247 -3.8599761759317914 0.7531660831086526 0 0 Z " fill="#B18052" transform="translate(190.5625,152.5)"/>
<path d="M0 0 C0 0.6600000000000001 0 1.3200000000000003 0 2 C0.6599999999999966 2 1.3199999999999932 2 2 2 C4.431220700908568 6.278948433599076 4.763258292921364 10.16307244602168 4 15 C2 17.562499999999996 2 17.562499999999996 0 19 C-0.9900000000000091 18.67 -1.9799999999999898 18.340000000000003 -3 18 C-2.6699999999999875 17.34 -2.3400000000000034 16.68 -2 16 C-2.6599999999999966 16 -3.319999999999993 16 -4 16 C-3.6699999999999875 13.030000000000001 -3.3400000000000034 10.059999999999999 -3 7 C-6 5 -6 5 -8.5 5.125 C-11.481914271881664 6.168669995158581 -12.374754498844766 7.348283656009858 -14 10 C-14.990000000000009 9.34 -15.97999999999999 8.68 -17 8 C-17.1875 5.375 -17.1875 5.375 -17 3 C-15.680000000000007 2.34 -14.360000000000014 1.6799999999999997 -13 1 C-13 0.33999999999999986 -13 -0.3200000000000003 -13 -1 C-8.434040515506865 -2.5805244369399354 -4.46941792237331 -1.4898059741244332 0 0 Z " fill="#C29667" transform="translate(163,14)"/>
<path d="M0 0 C6.7747127137311764 1.6045372216731693 13.214661974114449 5.856034760481123 17.8203125 11.0546875 C19 13 19 13 18.6875 15.75 C18.460624999999993 16.492500000000007 18.23375 17.235 18 18 C15.023549208773062 17.669283245419223 14.055679422396508 17.060899368246183 12 14.8125 C3.680524093947696 6.166277306096703 -7.692598122327894 4.832270696579926 -19 4 C-19 3.6700000000000017 -19 3.3400000000000034 -19 3 C-15.04 3 -11.079999999999998 3 -7 3 C-6.670000000000002 2.3400000000000034 -6.340000000000003 1.6800000000000068 -6 1 C-5.010000000000005 1.1650000000000063 -5.010000000000005 1.1650000000000063 0 2 C0 1.3400000000000034 0 0.6800000000000068 0 0 Z " fill="#CB9F6E" transform="translate(73,102)"/>
<path d="M0 0 C0.8159765624999977 -0.03738281249999886 1.6319531249999955 -0.07476562499999773 2.47265625 -0.11328125 C4.9375 0.3125 4.9375 0.3125 6.94580078125 2.301025390625 C11.295689627029503 5.225681356054835 15.135552692539989 4.915294186425257 20.26953125 4.921875 C20.765404891967762 4.930143127441411 20.765404891967762 4.930143127441411 23.274826049804688 4.97198486328125 C26.433280428862048 5.02045561530737 29.59125333534257 5.041834179295506 32.75 5.0625 C34.895206501665996 5.090660387121076 37.04039058497375 5.120587907171682 39.185546875 5.15234375 C44.43611053750942 5.22621399919457 49.68653884541132 5.277861980083628 54.9375 5.3125 C54.9375 5.642499999999998 54.9375 5.972499999999997 54.9375 6.3125 C34.14749999999998 6.642499999999998 13.357499999999987 6.972499999999997 -8.0625 7.3125 C-8.0625 6.652500000000003 -8.0625 5.992500000000007 -8.0625 5.3125 C-9.155625 5.498125000000002 -10.248750000000001 5.683750000000003 -11.375 5.875 C-15.0625 6.3125 -15.0625 6.3125 -18.0625 5.3125 C-18.3925 5.972499999999997 -18.722499999999997 6.632499999999993 -19.0625 7.3125 C-19.0625 6.322500000000005 -19.0625 5.332499999999996 -19.0625 4.3125 C-12.617233984176224 1.7566186488974722 -6.956449977010934 0.3082621850964955 0 0 Z " fill="#CB9E70" transform="translate(125.0625,64.6875)"/>
<path d="M0 0 C0.3299999999999841 0.9899999999999949 0.6599999999999966 1.980000000000004 1 3 C0.3400000000000034 3.6599999999999966 -0.3199999999999932 4.319999999999993 -1 5 C-0.3400000000000034 5.659999999999997 0.3199999999999932 6.319999999999993 1 7 C0.4921093749999841 7.363515625000005 -0.01578125000000341 7.727031249999996 -0.5390625 8.1015625 C-4.049852769088346 10.665622808884748 -7.286687135222678 13.183739991778253 -10.25 16.375 C-13 19 -13 19 -17 19 C-16.62288273273441 13.720358258281763 -14.923367739561797 10.448835140392333 -11 7 C-7.423204682193244 4.509826044564917 -3.749726939655318 2.2196282059606034 0 0 Z " fill="#CB9F70" transform="translate(231,103)"/>
<path d="M0 0 C11.219999999999999 0 22.439999999999998 0 34 0 C31 2 31 2 27 2 C27 2.6599999999999966 27 3.3200000000000003 27 4 C28.319999999999993 4.329999999999998 29.639999999999986 4.659999999999997 31 5 C30 6 30 6 27.958740234375 6.113525390625 C27.084191894531244 6.108288574218747 26.20964355468749 6.103051757812501 25.30859375 6.09765625 C24.364355468750006 6.094433593749997 23.42011718750001 6.091210937500001 22.447265625 6.087890625 C21.454042968750002 6.079511718749998 20.460820312500005 6.071132812499997 19.4375 6.0625 C18.44041015625001 6.057988281249997 17.443320312499992 6.053476562500002 16.416015625 6.048828125 C13.943951513794872 6.03700006705165 11.472004820834144 6.020518492319525 9 6 C9 5.340000000000003 9 4.68 9 4 C12.300000000000011 4 15.599999999999994 4 19 4 C19 3.009999999999998 19 2.020000000000003 19 1 C12.72999999999999 1 6.460000000000008 1 0 1 C0 0.6700000000000017 0 0.3400000000000034 0 0 Z " fill="#C9A071" transform="translate(141,57)"/>
<path d="M0 0 C2.4375 0.75 2.4375 0.75 4.4375 2.75 C4.8125 5.6875 4.8125 5.6875 4.4375 8.75 C2.75 10.6875 2.75 10.6875 0.4375 11.75 C-2.93286310762511 11.509259778026777 -4.150480206069403 11.162019793930604 -6.5625 8.75 C-6.375 5.25 -6.375 5.25 -5.5625 1.75 C-2.5625 -0.25 -2.5625 -0.25 0 0 Z " fill="#F9DDC2" transform="translate(156.5625,18.25)"/>
  </svg>
</svg>
